<svg version="1.1" xmlns="http://www.w3.org/2000/svg" viewBox="0 0 718.7094300106575 598.5102453399122" width="1437.418860021315" height="1197.0204906798244">
  <!-- svg-source:excalidraw -->
  
  <defs>
    <style class="style-fonts">
      @font-face {
        font-family: "Virgil";
        src: url("https://excalidraw.com/Virgil.woff2");
      }
      @font-face {
        font-family: "Cascadia";
        src: url("https://excalidraw.com/Cascadia.woff2");
      }
    </style>
  </defs>
  <g stroke-linecap="round"><g transform="translate(258.47332920266456 39.70703124999997) rotate(0 -95.7439473947976 122.98013115726877)"><path d="M-0.77 0.03 C-32.59 41.3, -159.49 205.79, -191.28 246.96 M1.02 -1 C-30.96 39.99, -160.84 204.2, -192.51 245.24" stroke="#eb6f92" stroke-width="1" fill="none"></path></g></g><mask></mask><g stroke-linecap="round" transform="translate(66.07489170266456 37.66892817982455) rotate(0 96.65234375 124.189453125)"><path d="M0.01 -0.93 C50.13 1.12, 98.12 2.51, 194.62 -1.18 M0.92 0.98 C72.55 -1.31, 143.7 -1.53, 192.64 0.02 M192.6 -0.15 C193.64 59.22, 193.57 115.65, 192.94 247.43 M193.29 0.64 C193.11 96.17, 191.8 190.57, 193.07 248.45 M193.83 250.15 C119.31 244.85, 46.81 248.26, -1.49 247.49 M193.39 248.88 C125.34 249.55, 58.92 247.72, 0.37 248.83 M0.31 249.67 C1.05 182.65, -0.5 118.92, 0.67 0.32 M-0.7 247.69 C-1.45 182.26, -2.46 115.13, -0.2 0.28" stroke="#e0def4" stroke-width="1" fill="none"></path></g><g transform="translate(659.7416933241212 301.99420517263735) rotate(88.96558424907931 31.600000381469727 16.799999999999983)"><text x="0" y="0" font-family="Virgil, Segoe UI Emoji" font-size="28px" fill="#e0def4" text-anchor="start" style="white-space: pre;" direction="ltr" dominant-baseline="text-before-edge">Heap</text></g><g stroke-linecap="round"><g transform="translate(69.40301670266456 89.70408442982455) rotate(0 93.58363117728845 -0.1733961732881255)"><path d="M0.22 0.75 C31.57 0.73, 156.83 0.93, 188.28 0.64 M-1.12 0.1 C30.04 -0.34, 155.66 -1.11, 187.26 -1.14" stroke="#e0def4" stroke-width="1" fill="none"></path></g></g><mask></mask><g stroke-linecap="round"><g transform="translate(161.03582920266456 40.04783442982455) rotate(0 0.16757075498944118 120.31226630745459)"><path d="M0.51 0.44 C0.76 40.29, 1.07 199.78, 1 239.57 M-0.68 -0.38 C-0.45 39.62, 0.56 200.91, 0.58 241" stroke="#e0def4" stroke-width="1" fill="none"></path></g></g><mask></mask><g transform="translate(92.37957920266456 50.83689692982455) rotate(0 24.899999618530273 12)"><text x="0" y="0" font-family="Virgil, Segoe UI Emoji" font-size="20px" fill="#e0def4" text-anchor="start" style="white-space: pre;" direction="ltr" dominant-baseline="text-before-edge">Name</text></g><g transform="translate(185.72332920266456 50.57908442982455) rotate(0 25.616666793823242 12)"><text x="0" y="0" font-family="Virgil, Segoe UI Emoji" font-size="20px" fill="#e0def4" text-anchor="start" style="white-space: pre;" direction="ltr" dominant-baseline="text-before-edge">Value</text></g><g stroke-linecap="round"><g transform="translate(63.76239170266456 148.48533442982455) rotate(0 95.59585932471788 0.09977577911371327)"><path d="M-0.37 -0.92 C31.31 -1.23, 157.47 -0.96, 189.36 -0.78 M1.64 1.21 C33.75 1.55, 160.08 0.29, 191.56 0.35" stroke="#e0def4" stroke-width="1" fill="none"></path></g></g><mask></mask><g stroke-linecap="round"><g transform="translate(65.98331288987447 216.70408442982455) rotate(0 94.50884146828668 -0.3227111665578377)"><path d="M-1.19 -0.43 C30.41 -0.44, 158.42 0.82, 190.21 1.06 M0.39 -1.71 C31.76 -1.51, 157.26 -0.65, 189.19 -0.51" stroke="#e0def4" stroke-width="1" fill="none"></path></g></g><mask></mask><g transform="translate(96.93426670266456 106.89939692982455) rotate(0 14.883333206176758 12)"><text x="0" y="0" font-family="Virgil, Segoe UI Emoji" font-size="20px" fill="#e0def4" text-anchor="start" style="white-space: pre;" direction="ltr" dominant-baseline="text-before-edge">ptr</text></g><g transform="translate(96.86786045266456 170.40330317982455) rotate(0 12.766666412353516 12)"><text x="0" y="0" font-family="Virgil, Segoe UI Emoji" font-size="20px" fill="#e0def4" text-anchor="start" style="white-space: pre;" direction="ltr" dominant-baseline="text-before-edge">len</text></g><g transform="translate(73.63348545266456 238.91892817982455) rotate(0 40.81666564941406 12)"><text x="0" y="0" font-family="Virgil, Segoe UI Emoji" font-size="20px" fill="#e0def4" text-anchor="start" style="white-space: pre;" direction="ltr" dominant-baseline="text-before-edge">capacity</text></g><g transform="translate(4.912275498918632 286.78779429466965) rotate(268.6427554507208 39.61666488647461 33.60000000000002)"><text x="39.61666488647461" y="0" font-family="Virgil, Segoe UI Emoji" font-size="28px" fill="#e0def4" text-anchor="middle" style="white-space: pre;" direction="ltr" dominant-baseline="text-before-edge">Stack</text><text x="39.61666488647461" y="33.6" font-family="Virgil, Segoe UI Emoji" font-size="28px" fill="#e0def4" text-anchor="middle" style="white-space: pre;" direction="ltr" dominant-baseline="text-before-edge"></text></g><g transform="translate(201.28426660729713 171.69627192982455) rotate(0 6.400000095367432 12)"><text x="6.400000095367432" y="0" font-family="Virgil, Segoe UI Emoji" font-size="20px" fill="#e0def4" text-anchor="middle" style="white-space: pre;" direction="ltr" dominant-baseline="text-before-edge">4</text></g><g transform="translate(201.58504785729713 240.83299067982455) rotate(0 6.400000095367432 12)"><text x="6.400000095367432" y="0" font-family="Virgil, Segoe UI Emoji" font-size="20px" fill="#e0def4" text-anchor="middle" style="white-space: pre;" direction="ltr" dominant-baseline="text-before-edge">4</text></g><g stroke-linecap="round" transform="translate(489.84442295266456 187.83689692982455) rotate(0 87.63671875 133.54296875)"><path d="M-0.98 -0.59 C48.14 -3.32, 99.15 -1.95, 177.15 -0.75 M0.15 -0.28 C44.55 -0.39, 90.84 1.09, 175.4 -0.46 M174.9 0.59 C174.88 56.11, 175.58 109.32, 174.67 266.75 M175.45 0.76 C175.17 80.34, 173.97 159.97, 175.49 267.44 M176.98 266.28 C129.22 265.77, 84.06 264.2, 1.51 266.87 M175.85 266.2 C125.72 267.12, 76.8 267.39, 0.28 267.13 M-0.55 265.81 C2.27 200.06, -0.34 133.6, 1.46 -1.11 M-0.73 267.85 C1.3 190.42, 1.2 113.5, 0.06 -0.15" stroke="#e0def4" stroke-width="1" fill="none"></path></g><g stroke-linecap="round"><g transform="translate(494.64129795266456 244.76658442982455) rotate(0 84.9854550680937 -0.013599389791494332)"><path d="M-0.23 0.8 C28.33 0.51, 143.48 -0.64, 171.78 -0.82 M-1.81 0.17 C26.65 -0.06, 142.45 0.17, 171.39 0.28" stroke="#e0def4" stroke-width="1" fill="none"></path></g></g><mask></mask><g stroke-linecap="round"><g transform="translate(577.6959854526646 188.03220942982455) rotate(0 0.5640831609489396 132.72091027292893)"><path d="M-0.53 -0.01 C-0.65 44.3, -0.56 222.06, -0.63 266.51 M1.39 -1.07 C1.67 42.86, 1.74 220.46, 1.76 264.79" stroke="#e0def4" stroke-width="1" fill="none"></path></g></g><mask></mask><g stroke-linecap="round"><g transform="translate(492.40692295266456 298.61814692982455) rotate(0 85.66399994492531 0.5829798620101201)"><path d="M-0.61 0.27 C28.02 0.46, 143.42 0.41, 171.93 0.17 M1.28 -0.64 C29.81 -0.14, 143.41 1.77, 171.42 1.8" stroke="#e0def4" stroke-width="1" fill="none"></path></g></g><mask></mask><g stroke-linecap="round"><g transform="translate(490.02020420266456 350.84080317982455) rotate(0 86.51198041134518 0.481197400258111)"><path d="M1.17 1.13 C29.65 1.33, 142.07 1.45, 170.37 1.15 M0.33 0.68 C29.24 0.58, 144.4 -0.3, 172.69 -0.37" stroke="#e0def4" stroke-width="1" fill="none"></path></g></g><mask></mask><g stroke-linecap="round"><g transform="translate(492.45379795266456 406.20799067982455) rotate(0 85.58678941130637 -0.45077157360941555)"><path d="M-0.99 0.3 C27.69 0.31, 143.33 0.63, 172.17 0.48 M0.69 -0.59 C29.3 -0.98, 143.27 -1.56, 171.77 -1.39" stroke="#e0def4" stroke-width="1" fill="none"></path></g></g><mask></mask><g transform="translate(504.7814022464878 204.91892817982455) rotate(0 26.883333206176758 12)"><text x="26.883333206176758" y="0" font-family="Virgil, Segoe UI Emoji" font-size="20px" fill="#e0def4" text-anchor="middle" style="white-space: pre;" direction="ltr" dominant-baseline="text-before-edge">Index</text></g><g transform="translate(596.4543186588413 204.48142817982455) rotate(0 25.616666793823242 12)"><text x="25.616666793823242" y="0" font-family="Virgil, Segoe UI Emoji" font-size="20px" fill="#e0def4" text-anchor="middle" style="white-space: pre;" direction="ltr" dominant-baseline="text-before-edge">Value</text></g><g transform="translate(525.4415584964878 262.20017817982455) rotate(0 6.883333206176758 12)"><text x="6.883333206176758" y="0" font-family="Virgil, Segoe UI Emoji" font-size="20px" fill="#e0def4" text-anchor="middle" style="white-space: pre;" direction="ltr" dominant-baseline="text-before-edge">0</text></g><g transform="translate(524.9855686588413 367.82908442982455) rotate(0 7.116666793823242 12)"><text x="7.116666793823242" y="0" font-family="Virgil, Segoe UI Emoji" font-size="20px" fill="#e0def4" text-anchor="middle" style="white-space: pre;" direction="ltr" dominant-baseline="text-before-edge">2</text></g><g transform="translate(522.5746313495762 418.29002192982455) rotate(0 6.816666603088379 12)"><text x="6.816666603088379" y="0" font-family="Virgil, Segoe UI Emoji" font-size="20px" fill="#e0def4" text-anchor="middle" style="white-space: pre;" direction="ltr" dominant-baseline="text-before-edge">3</text></g><g transform="translate(531.3113500042087 312.47752192982455) rotate(0 2.7166666984558105 12)"><text x="2.7166666984558105" y="0" font-family="Virgil, Segoe UI Emoji" font-size="20px" fill="#e0def4" text-anchor="middle" style="white-space: pre;" direction="ltr" dominant-baseline="text-before-edge">1</text></g><g transform="translate(610.1405168933994 258.03220942982455) rotate(0 8.949999809265137 14.400000000000006)"><text x="8.949999809265137" y="0" font-family="Virgil, Segoe UI Emoji" font-size="24.616477272727273px" fill="#e0def4" text-anchor="middle" style="white-space: pre;" direction="ltr" dominant-baseline="text-before-edge">B</text></g><g transform="translate(613.5449439449436 309.62986567982455) rotate(0 6.666666507720947 14.399999999999977)"><text x="6.666666507720947" y="0" font-family="Virgil, Segoe UI Emoji" font-size="24.0625000000001px" fill="#e0def4" text-anchor="middle" style="white-space: pre;" direction="ltr" dominant-baseline="text-before-edge">o</text></g><g transform="translate(612.6271835918552 362.06736567982455) rotate(0 7.233333110809326 15.600000000000023)"><text x="7.233333110809326" y="0" font-family="Virgil, Segoe UI Emoji" font-size="26.131250000000005px" fill="#e0def4" text-anchor="middle" style="white-space: pre;" direction="ltr" dominant-baseline="text-before-edge">o</text></g><g transform="translate(609.7961155338413 413.61814692982455) rotate(0 7.366666793823242 18)"><text x="7.366666793823242" y="0" font-family="Virgil, Segoe UI Emoji" font-size="30.24739583333324px" fill="#e0def4" text-anchor="middle" style="white-space: pre;" direction="ltr" dominant-baseline="text-before-edge">k</text></g><g transform="translate(141.99676670266456 10) rotate(0 20.850000381469727 9.599999999999994)"><text x="0" y="0" font-family="Virgil, Segoe UI Emoji" font-size="16px" fill="#e0def4" text-anchor="start" style="white-space: pre;" direction="ltr" dominant-baseline="text-before-edge">owner</text></g><g stroke-linecap="round" transform="translate(63.83465732766456 340.1313390899122) rotate(0 96.65234375 124.189453125)"><path d="M-1.7 1.58 C75.48 -1.38, 152.05 0.21, 195.05 -1.61 M0.08 -0.59 C72.3 -0.8, 145.17 -0.71, 193.39 -0.64 M193.87 -0.65 C193.35 54.37, 193.39 109.82, 193.51 247.16 M193.88 0.57 C192.32 74.3, 191.6 148.22, 192.88 247.61 M193.77 246.42 C129.91 250.09, 67.28 249.57, -0.08 246.53 M192.74 248.87 C117.04 248.64, 43.22 248.8, 0.64 248.03 M-1.58 248.52 C-2.91 174.14, -2.09 103, 1.05 -1.25 M-0.25 248.41 C-0.87 157.18, -0.86 65.92, -0.04 0.27" stroke="#e0def4" stroke-width="1" fill="none"></path></g><g stroke-linecap="round"><g transform="translate(67.16668857766456 392.4086828399122) rotate(0 93.7194537915289 0.014426451176404953)"><path d="M-1.02 0.95 C30.58 0.81, 156.76 -0.77, 188.46 -0.92 M0.65 0.4 C32.18 0.4, 156.18 -0.03, 187.53 0.14" stroke="#e0def4" stroke-width="1" fill="none"></path></g></g><mask></mask><g stroke-linecap="round"><g transform="translate(158.79950107766456 342.7524328399122) rotate(0 0.19924370500035593 119.75258070826067)"><path d="M0.95 0.03 C0.81 40.29, -0.77 200.37, -0.92 240.5 M-0.01 -0.99 C0.23 39.01, 1.43 198.75, 1.31 238.76" stroke="#e0def4" stroke-width="1" fill="none"></path></g></g><mask></mask><g transform="translate(90.14325107766456 353.5414953399122) rotate(0 24.899999618530273 12)"><text x="0" y="0" font-family="Virgil, Segoe UI Emoji" font-size="20px" fill="#e0def4" text-anchor="start" style="white-space: pre;" direction="ltr" dominant-baseline="text-before-edge">Name</text></g><g transform="translate(183.48700107766456 353.2836828399122) rotate(0 25.616666793823242 12)"><text x="0" y="0" font-family="Virgil, Segoe UI Emoji" font-size="20px" fill="#e0def4" text-anchor="start" style="white-space: pre;" direction="ltr" dominant-baseline="text-before-edge">Value</text></g><g stroke-linecap="round"><g transform="translate(61.52606357766456 451.1899328399122) rotate(0 95.51719775466248 -0.4647752747218874)"><path d="M0.72 0.03 C32.62 0.03, 159.64 -1, 191.39 -0.97 M-0.35 -0.99 C31.47 -0.8, 159.11 -0.38, 190.99 0.06" stroke="#e0def4" stroke-width="1" fill="none"></path></g></g><mask></mask><g stroke-linecap="round"><g transform="translate(63.74698476487447 519.4086828399122) rotate(0 95.08542578864376 0.1544678432384785)"><path d="M0.03 1.05 C31.75 1.08, 157.62 0.9, 189.37 0.9 M-1.41 0.56 C30.76 0.2, 159.69 -0.53, 191.58 -0.74" stroke="#e0def4" stroke-width="1" fill="none"></path></g></g><mask></mask><g transform="translate(94.69793857766456 409.6039953399122) rotate(0 14.883333206176758 12)"><text x="0" y="0" font-family="Virgil, Segoe UI Emoji" font-size="20px" fill="#e0def4" text-anchor="start" style="white-space: pre;" direction="ltr" dominant-baseline="text-before-edge">ptr</text></g><g transform="translate(94.63153232766456 473.1079015899122) rotate(0 12.766666412353516 12)"><text x="0" y="0" font-family="Virgil, Segoe UI Emoji" font-size="20px" fill="#e0def4" text-anchor="start" style="white-space: pre;" direction="ltr" dominant-baseline="text-before-edge">len</text></g><g transform="translate(71.39715732766456 541.6235265899122) rotate(0 40.81666564941406 12)"><text x="0" y="0" font-family="Virgil, Segoe UI Emoji" font-size="20px" fill="#e0def4" text-anchor="start" style="white-space: pre;" direction="ltr" dominant-baseline="text-before-edge">capacity</text></g><g transform="translate(199.04793848229713 474.4008703399122) rotate(0 6.400000095367432 12)"><text x="6.400000095367432" y="0" font-family="Virgil, Segoe UI Emoji" font-size="20px" fill="#e0def4" text-anchor="middle" style="white-space: pre;" direction="ltr" dominant-baseline="text-before-edge">4</text></g><g transform="translate(199.11825098229713 543.9907140899122) rotate(0 6.400000095367432 12)"><text x="6.400000095367432" y="0" font-family="Virgil, Segoe UI Emoji" font-size="20px" fill="#e0def4" text-anchor="middle" style="white-space: pre;" direction="ltr" dominant-baseline="text-before-edge">4</text></g><g transform="translate(115.89325107766456 311.6616296600878) rotate(0 40.43333435058594 9.600000000000023)"><text x="0" y="0" font-family="Virgil, Segoe UI Emoji" font-size="16px" fill="#e0def4" text-anchor="start" style="white-space: pre;" direction="ltr" dominant-baseline="text-before-edge">new_owner</text></g><g stroke-linecap="round"><g transform="translate(66.17645420266456 37.1953125) rotate(0 95.74117654040452 124.36583485005892)"><path d="M-0.88 -0.57 C31.32 40.91, 160.16 206.59, 192.36 248.03 M0.86 1.75 C33 43.46, 159.76 208.07, 191.57 249.3" stroke="#eb6f92" stroke-width="1" fill="none"></path></g></g><mask></mask><g stroke-linecap="round"><g transform="translate(206.86786045266456 418.828125) rotate(0 146.4824646633118 -70.90696590837553)"><path d="M-1.17 -1.05 C47.85 -24.51, 244.95 -117.43, 294.13 -140.81 M0.42 1.01 C49.31 -22.83, 244.6 -119.29, 293.41 -142.83" stroke="#e0def4" stroke-width="1" fill="none"></path></g><g transform="translate(206.86786045266456 418.828125) rotate(0 146.4824646633118 -70.90696590837553)"><path d="M270.84 -120.52 C279.27 -127.23, 284.73 -135.15, 293.35 -140.85 M272.92 -120.89 C279.44 -130.04, 287.63 -136.96, 292.52 -142.39" stroke="#e0def4" stroke-width="1" fill="none"></path></g><g transform="translate(206.86786045266456 418.828125) rotate(0 146.4824646633118 -70.90696590837553)"><path d="M261.82 -138.96 C272.98 -139.99, 281.18 -142.3, 293.35 -140.85 M263.91 -139.33 C273.71 -141.66, 285.21 -141.81, 292.52 -142.39" stroke="#e0def4" stroke-width="1" fill="none"></path></g></g><mask></mask></svg>