<svg version="1.1" xmlns="http://www.w3.org/2000/svg" viewBox="0 0 651.8666663169861 207.5" width="1303.7333326339722" height="415">
  <!-- svg-source:excalidraw -->
  
  <defs>
    <style class="style-fonts">
      @font-face {
        font-family: "Virgil";
        src: url("https://excalidraw.com/Virgil.woff2");
      }
      @font-face {
        font-family: "Cascadia";
        src: url("https://excalidraw.com/Cascadia.woff2");
      }
    </style>
  </defs>
  <rect x="0" y="0" width="651.8666663169861" height="207.5" fill="#ffffff"></rect><g transform="translate(10 10) rotate(0 28.28333282470703 12.5)"><text x="0" y="0" font-family="Virgil, Segoe UI Emoji" font-size="20px" fill="#000000" text-anchor="start" style="white-space: pre;" direction="ltr" dominant-baseline="text-before-edge">Stack</text></g><g stroke-linecap="round" transform="translate(10 58) rotate(0 253 31.5)"><path d="M15.75 0 M15.75 0 C174.96 0.91, 334.82 -0.63, 490.25 0 M15.75 0 C130.31 0.14, 244.33 -0.15, 490.25 0 M490.25 0 C500.02 1.83, 506.78 5.97, 506 15.75 M490.25 0 C500.2 -0.85, 507.76 4.72, 506 15.75 M506 15.75 C507.68 24.78, 505.61 36.29, 506 47.25 M506 15.75 C505.71 28.45, 506.69 41.45, 506 47.25 M506 47.25 C507.69 55.98, 500.07 61.8, 490.25 63 M506 47.25 C506.4 57.98, 502.97 63.65, 490.25 63 M490.25 63 C335.32 61.5, 180.82 61.37, 15.75 63 M490.25 63 C330.8 63.4, 170.38 63.12, 15.75 63 M15.75 63 C5.93 63.43, 0.66 59.54, 0 47.25 M15.75 63 C6.18 61.01, 1.69 58.85, 0 47.25 M0 47.25 C-0.02 38.61, 0.06 28.63, 0 15.75 M0 47.25 C0.53 36.13, -0.88 24.97, 0 15.75 M0 15.75 C-0.84 6.84, 7.24 0.48, 15.75 0 M0 15.75 C-1.07 3.14, 5.25 1.91, 15.75 0" stroke="#000000" stroke-width="1" fill="none"></path></g><g transform="translate(535 78) rotate(0 6.666666507720947 12.5)"><text x="0" y="0" font-family="Virgil, Segoe UI Emoji" font-size="20px" fill="#000000" text-anchor="start" style="white-space: pre;" direction="ltr" dominant-baseline="text-before-edge">a</text></g><g stroke-linecap="round" transform="translate(11 134.5) rotate(0 253 31.5)"><path d="M15.75 0 M15.75 0 C174.96 0.91, 334.82 -0.63, 490.25 0 M15.75 0 C130.31 0.14, 244.33 -0.15, 490.25 0 M490.25 0 C500.02 1.83, 506.78 5.97, 506 15.75 M490.25 0 C500.2 -0.85, 507.76 4.72, 506 15.75 M506 15.75 C507.68 24.78, 505.61 36.29, 506 47.25 M506 15.75 C505.71 28.45, 506.69 41.45, 506 47.25 M506 47.25 C507.69 55.98, 500.07 61.8, 490.25 63 M506 47.25 C506.4 57.98, 502.97 63.65, 490.25 63 M490.25 63 C335.32 61.5, 180.82 61.37, 15.75 63 M490.25 63 C330.8 63.4, 170.38 63.12, 15.75 63 M15.75 63 C5.93 63.43, 0.66 59.54, 0 47.25 M15.75 63 C6.18 61.01, 1.69 58.85, 0 47.25 M0 47.25 C-0.02 38.61, 0.06 28.63, 0 15.75 M0 47.25 C0.53 36.13, -0.88 24.97, 0 15.75 M0 15.75 C-0.84 6.84, 7.24 0.48, 15.75 0 M0 15.75 C-1.07 3.14, 5.25 1.91, 15.75 0" stroke="#000000" stroke-width="1" fill="none"></path></g><g transform="translate(534.333333492279 152.5) rotate(0 53.766666412353516 12.5)"><text x="0" y="0" font-family="Virgil, Segoe UI Emoji" font-size="20px" fill="#000000" text-anchor="start" style="white-space: pre;" direction="ltr" dominant-baseline="text-before-edge">copy_of_a</text></g><g transform="translate(224 78) rotate(0 33.96666717529297 12.5)"><text x="0" y="0" font-family="Virgil, Segoe UI Emoji" font-size="20px" fill="#000000" text-anchor="start" style="white-space: pre;" direction="ltr" dominant-baseline="text-before-edge">8bytes</text></g><g transform="translate(226.03333282470703 153.5) rotate(0 33.96666717529297 12.5)"><text x="0" y="0" font-family="Virgil, Segoe UI Emoji" font-size="20px" fill="#000000" text-anchor="start" style="white-space: pre;" direction="ltr" dominant-baseline="text-before-edge">8bytes</text></g></svg>