<svg version="1.1" xmlns="http://www.w3.org/2000/svg" viewBox="0 0 703.7185463912563 307.5422486699464" width="1407.4370927825125" height="615.0844973398928">
  <!-- svg-source:excalidraw -->
  
  <defs>
    <style class="style-fonts">
      @font-face {
        font-family: "Virgil";
        src: url("https://excalidraw.com/Virgil.woff2");
      }
      @font-face {
        font-family: "Cascadia";
        src: url("https://excalidraw.com/Cascadia.woff2");
      }
    </style>
  </defs>
  <g stroke-linecap="round" transform="translate(58.25728973344758 38.88377192982455) rotate(0 96.65234375 124.189453125)"><path d="M0.01 -0.93 C50.13 1.12, 98.12 2.51, 194.62 -1.18 M0.92 0.98 C72.55 -1.31, 143.7 -1.53, 192.64 0.02 M192.6 -0.15 C193.64 59.22, 193.57 115.65, 192.94 247.43 M193.29 0.64 C193.11 96.17, 191.8 190.57, 193.07 248.45 M193.83 250.15 C119.31 244.85, 46.81 248.26, -1.49 247.49 M193.39 248.88 C125.34 249.55, 58.92 247.72, 0.37 248.83 M0.31 249.67 C1.05 182.65, -0.5 118.92, 0.67 0.32 M-0.7 247.69 C-1.45 182.26, -2.46 115.13, -0.2 0.28" stroke="#e0def4" stroke-width="1" fill="none"></path></g><g transform="translate(645.0451821999072 139.92338246139286) rotate(89.50319703858453 31.600000381469727 16.80000000000001)"><text x="0" y="0" font-family="Virgil, Segoe UI Emoji" font-size="28px" fill="#e0def4" text-anchor="start" style="white-space: pre;" direction="ltr" dominant-baseline="text-before-edge">Heap</text></g><g stroke-linecap="round"><g transform="translate(61.58932098344758 91.16111567982455) rotate(0 93.58363117728845 -0.1733961732881255)"><path d="M0.22 0.75 C31.57 0.73, 156.83 0.93, 188.28 0.64 M-1.12 0.1 C30.04 -0.34, 155.66 -1.11, 187.26 -1.14" stroke="#e0def4" stroke-width="1" fill="none"></path></g></g><mask></mask><g stroke-linecap="round"><g transform="translate(153.22213348344758 41.50486567982455) rotate(0 0.16757075498944118 120.31226630745459)"><path d="M0.51 0.44 C0.76 40.29, 1.07 199.78, 1 239.57 M-0.68 -0.38 C-0.45 39.62, 0.56 200.91, 0.58 241" stroke="#e0def4" stroke-width="1" fill="none"></path></g></g><mask></mask><g transform="translate(84.56588348344758 52.29392817982455) rotate(0 24.899999618530273 12)"><text x="0" y="0" font-family="Virgil, Segoe UI Emoji" font-size="20px" fill="#e0def4" text-anchor="start" style="white-space: pre;" direction="ltr" dominant-baseline="text-before-edge">Name</text></g><g transform="translate(177.90963348344758 52.03611567982455) rotate(0 25.616666793823242 12)"><text x="0" y="0" font-family="Virgil, Segoe UI Emoji" font-size="20px" fill="#e0def4" text-anchor="start" style="white-space: pre;" direction="ltr" dominant-baseline="text-before-edge">Value</text></g><g stroke-linecap="round"><g transform="translate(55.94869598344758 149.94236567982455) rotate(0 95.59585932471788 0.09977577911371327)"><path d="M-0.37 -0.92 C31.31 -1.23, 157.47 -0.96, 189.36 -0.78 M1.64 1.21 C33.75 1.55, 160.08 0.29, 191.56 0.35" stroke="#e0def4" stroke-width="1" fill="none"></path></g></g><mask></mask><g stroke-linecap="round"><g transform="translate(58.16961717065749 218.16111567982455) rotate(0 94.50884146828668 -0.3227111665578377)"><path d="M-1.19 -0.43 C30.41 -0.44, 158.42 0.82, 190.21 1.06 M0.39 -1.71 C31.76 -1.51, 157.26 -0.65, 189.19 -0.51" stroke="#e0def4" stroke-width="1" fill="none"></path></g></g><mask></mask><g transform="translate(89.12057098344758 108.35642817982455) rotate(0 14.883333206176758 12)"><text x="0" y="0" font-family="Virgil, Segoe UI Emoji" font-size="20px" fill="#e0def4" text-anchor="start" style="white-space: pre;" direction="ltr" dominant-baseline="text-before-edge">ptr</text></g><g transform="translate(89.05416473344758 171.86033442982455) rotate(0 12.766666412353516 12)"><text x="0" y="0" font-family="Virgil, Segoe UI Emoji" font-size="20px" fill="#e0def4" text-anchor="start" style="white-space: pre;" direction="ltr" dominant-baseline="text-before-edge">len</text></g><g transform="translate(65.81978973344758 240.37595942982455) rotate(0 40.81666564941406 12)"><text x="0" y="0" font-family="Virgil, Segoe UI Emoji" font-size="20px" fill="#e0def4" text-anchor="start" style="white-space: pre;" direction="ltr" dominant-baseline="text-before-edge">capacity</text></g><g transform="translate(4.595676686928073 125.8995260460614) rotate(269.10847976911526 39.61666488647461 33.599999999999994)"><text x="39.61666488647461" y="0" font-family="Virgil, Segoe UI Emoji" font-size="28px" fill="#e0def4" text-anchor="middle" style="white-space: pre;" direction="ltr" dominant-baseline="text-before-edge">Stack</text><text x="39.61666488647461" y="33.6" font-family="Virgil, Segoe UI Emoji" font-size="28px" fill="#e0def4" text-anchor="middle" style="white-space: pre;" direction="ltr" dominant-baseline="text-before-edge"></text></g><g stroke-linecap="round"><g transform="translate(197.26900848344758 120.00486567982455) rotate(0 147.63537279069428 -3.0855375305381187)"><path d="M-0.92 0.46 C48.58 -0.43, 246.54 -3.85, 296.19 -4.95 M0.8 -0.35 C50.2 -1.61, 245.89 -5.84, 295.18 -6.63" stroke="#e0def4" stroke-width="1" fill="none"></path></g><g transform="translate(197.26900848344758 120.00486567982455) rotate(0 147.63537279069428 -3.0855375305381187)"><path d="M267.95 3.98 C275.06 3.01, 279.49 -0.88, 297.17 -5.83 M267.27 3.46 C273.83 2.03, 279.06 -0.45, 294.51 -6.61" stroke="#e0def4" stroke-width="1" fill="none"></path></g><g transform="translate(197.26900848344758 120.00486567982455) rotate(0 147.63537279069428 -3.0855375305381187)"><path d="M267.56 -16.53 C274.83 -12.75, 279.35 -11.89, 297.17 -5.83 M266.88 -17.06 C273.35 -14.05, 278.67 -12.09, 294.51 -6.61" stroke="#e0def4" stroke-width="1" fill="none"></path></g></g><mask></mask><g transform="translate(193.47057088808015 172.92674067982455) rotate(0 6.400000095367432 12)"><text x="6.400000095367432" y="0" font-family="Virgil, Segoe UI Emoji" font-size="20px" fill="#e0def4" text-anchor="middle" style="white-space: pre;" direction="ltr" dominant-baseline="text-before-edge">4</text></g><g transform="translate(193.54088338808015 242.74314692982455) rotate(0 6.400000095367432 12)"><text x="6.400000095367432" y="0" font-family="Virgil, Segoe UI Emoji" font-size="20px" fill="#e0def4" text-anchor="middle" style="white-space: pre;" direction="ltr" dominant-baseline="text-before-edge">4</text></g><g stroke-linecap="round" transform="translate(473.8822897334476 30.250959429824547) rotate(0 87.63671875 133.23828125)"><path d="M-0.98 -0.59 C48.14 -3.32, 99.15 -1.95, 177.15 -0.75 M0.15 -0.28 C44.55 -0.39, 90.84 1.09, 175.4 -0.46 M174.9 0.59 C174.88 55.98, 175.58 109.07, 174.67 266.14 M175.45 0.76 C175.17 80.15, 173.97 159.6, 175.49 266.84 M176.98 265.67 C129.22 265.16, 84.06 263.59, 1.51 266.26 M175.85 265.6 C125.72 266.51, 76.8 266.78, 0.28 266.53 M-0.55 265.2 C2.27 199.61, -0.34 133.3, 1.46 -1.11 M-0.73 267.24 C1.3 189.99, 1.19 113.24, 0.06 -0.15" stroke="#e0def4" stroke-width="1" fill="none"></path></g><g stroke-linecap="round"><g transform="translate(478.6830709834476 86.27049067982455) rotate(0 84.9854550680937 -0.013599389791494332)"><path d="M-0.23 0.8 C28.33 0.51, 143.48 -0.64, 171.78 -0.82 M-1.81 0.17 C26.65 -0.06, 142.45 0.17, 171.39 0.28" stroke="#e0def4" stroke-width="1" fill="none"></path></g></g><mask></mask><g stroke-linecap="round"><g transform="translate(561.7377584834476 29.536115679824547) rotate(0 0.5640831609489396 133.46895714792888)"><path d="M-0.53 -0.01 C-0.65 44.55, -0.56 223.3, -0.63 268.01 M1.39 -1.07 C1.67 43.11, 1.74 221.71, 1.76 266.28" stroke="#e0def4" stroke-width="1" fill="none"></path></g></g><mask></mask><g stroke-linecap="round"><g transform="translate(476.4486959834476 140.12205317982455) rotate(0 85.66399994492531 0.5829798620101201)"><path d="M-0.61 0.27 C28.02 0.46, 143.42 0.41, 171.93 0.17 M1.28 -0.64 C29.81 -0.14, 143.41 1.77, 171.42 1.8" stroke="#e0def4" stroke-width="1" fill="none"></path></g></g><mask></mask><g stroke-linecap="round"><g transform="translate(474.0619772334476 192.34470942982455) rotate(0 86.51198041134518 0.4811974002581394)"><path d="M1.17 1.13 C29.65 1.33, 142.07 1.45, 170.37 1.15 M0.33 0.68 C29.24 0.58, 144.4 -0.3, 172.69 -0.37" stroke="#e0def4" stroke-width="1" fill="none"></path></g></g><mask></mask><g stroke-linecap="round"><g transform="translate(476.4955709834476 247.71189692982455) rotate(0 85.58678941130637 -0.45077157360941555)"><path d="M-0.99 0.3 C27.69 0.31, 143.33 0.63, 172.17 0.48 M0.69 -0.59 C29.3 -0.98, 143.27 -1.56, 171.77 -1.39" stroke="#e0def4" stroke-width="1" fill="none"></path></g></g><mask></mask><g transform="translate(488.8231752772708 46.42283442982455) rotate(0 26.883333206176758 12)"><text x="26.883333206176758" y="0" font-family="Virgil, Segoe UI Emoji" font-size="20px" fill="#e0def4" text-anchor="middle" style="white-space: pre;" direction="ltr" dominant-baseline="text-before-edge">Index</text></g><g transform="translate(580.4960916896243 45.98533442982455) rotate(0 25.616666793823242 12)"><text x="25.616666793823242" y="0" font-family="Virgil, Segoe UI Emoji" font-size="20px" fill="#e0def4" text-anchor="middle" style="white-space: pre;" direction="ltr" dominant-baseline="text-before-edge">Value</text></g><g transform="translate(509.4833315272708 103.70408442982455) rotate(0 6.883333206176758 12)"><text x="6.883333206176758" y="0" font-family="Virgil, Segoe UI Emoji" font-size="20px" fill="#e0def4" text-anchor="middle" style="white-space: pre;" direction="ltr" dominant-baseline="text-before-edge">0</text></g><g transform="translate(509.02734168962434 209.33299067982455) rotate(0 7.116666793823242 12)"><text x="7.116666793823242" y="0" font-family="Virgil, Segoe UI Emoji" font-size="20px" fill="#e0def4" text-anchor="middle" style="white-space: pre;" direction="ltr" dominant-baseline="text-before-edge">2</text></g><g transform="translate(507.6164043803592 259.79392817982455) rotate(0 6.816666603088379 12)"><text x="6.816666603088379" y="0" font-family="Virgil, Segoe UI Emoji" font-size="20px" fill="#e0def4" text-anchor="middle" style="white-space: pre;" direction="ltr" dominant-baseline="text-before-edge">3</text></g><g transform="translate(515.3531230349918 153.98142817982455) rotate(0 2.7166666984558105 12)"><text x="2.7166666984558105" y="0" font-family="Virgil, Segoe UI Emoji" font-size="20px" fill="#e0def4" text-anchor="middle" style="white-space: pre;" direction="ltr" dominant-baseline="text-before-edge">1</text></g><g transform="translate(596.1822899241824 96.76658442982455) rotate(0 8.949999809265137 14.400000000000006)"><text x="8.949999809265137" y="0" font-family="Virgil, Segoe UI Emoji" font-size="24.616477272727273px" fill="#e0def4" text-anchor="middle" style="white-space: pre;" direction="ltr" dominant-baseline="text-before-edge">B</text></g><g transform="translate(597.8132794757266 149.28611567982455) rotate(0 6.666666507720947 14.400000000000006)"><text x="6.666666507720947" y="0" font-family="Virgil, Segoe UI Emoji" font-size="24.0625000000001px" fill="#e0def4" text-anchor="middle" style="white-space: pre;" direction="ltr" dominant-baseline="text-before-edge">o</text></g><g transform="translate(596.9892691226382 204.49314692982455) rotate(0 7.233333110809326 15.599999999999994)"><text x="7.233333110809326" y="0" font-family="Virgil, Segoe UI Emoji" font-size="26.131250000000005px" fill="#e0def4" text-anchor="middle" style="white-space: pre;" direction="ltr" dominant-baseline="text-before-edge">o</text></g><g transform="translate(596.8378885646243 255.35252192982455) rotate(0 7.366666793823242 18)"><text x="7.366666793823242" y="0" font-family="Virgil, Segoe UI Emoji" font-size="30.24739583333324px" fill="#e0def4" text-anchor="middle" style="white-space: pre;" direction="ltr" dominant-baseline="text-before-edge">k</text></g><g transform="translate(128.47994598344758 10) rotate(0 20.850000381469727 9.599999999999994)"><text x="0" y="0" font-family="Virgil, Segoe UI Emoji" font-size="16px" fill="#e0def4" text-anchor="start" style="white-space: pre;" direction="ltr" dominant-baseline="text-before-edge">owner</text></g></svg>